<svg width="18" height="18" viewBox="0 0 18 18" fill="none" xmlns="http://www.w3.org/2000/svg">
<path d="M2.83332 8.95662C2.12232 7.71762 1.77882 6.70512 1.57182 5.67912C1.26582 4.16112 1.96632 2.67837 3.12657 1.73187C3.61707 1.33212 4.17957 1.46937 4.46982 1.98912L5.12457 3.16437C5.64357 4.09587 5.90307 4.56087 5.85207 5.05437C5.80032 5.54862 5.45007 5.95062 4.75032 6.75462L2.83332 8.95662ZM2.83332 8.95662C4.27257 11.4661 6.53082 13.7266 9.04332 15.1666M9.04332 15.1666C10.2831 15.8776 11.2948 16.2211 12.3208 16.4281C13.8388 16.7341 15.3216 16.0336 16.2673 14.8734C16.6678 14.3829 16.5306 13.8204 16.0108 13.5301L14.8356 12.8754C13.9041 12.3564 13.4391 12.0969 12.9456 12.1479C12.4513 12.1996 12.0493 12.5499 11.2453 13.2496L9.04332 15.1666Z" stroke="#85868C" stroke-linecap="round" stroke-linejoin="round"/>
</svg>
