<svg width="18" height="18" viewBox="0 0 18 18" fill="none" xmlns="http://www.w3.org/2000/svg">
<path d="M4.55556 6.85714L7.88889 9C8.2042 9.20286 8.59608 9.31339 9 9.31339C9.40392 9.31339 9.7958 9.20286 10.1111 9L13.4444 6.85714M17 12.5714V5.42857C17 5.04969 16.8127 4.68633 16.4793 4.41842C16.1459 4.15051 15.6937 4 15.2222 4H2.77778C2.30628 4 1.8541 4.15051 1.5207 4.41842C1.1873 4.68633 1 5.04969 1 5.42857V12.5714C1 12.9503 1.1873 13.3137 1.5207 13.5816C1.8541 13.8495 2.30628 14 2.77778 14H15.2222C15.6937 14 16.1459 13.8495 16.4793 13.5816C16.8127 13.3137 17 12.9503 17 12.5714Z" stroke="#85868C" stroke-linecap="round" stroke-linejoin="round"/>
</svg>
