<svg width="18" height="18" viewBox="0 0 18 18" fill="none" xmlns="http://www.w3.org/2000/svg">
<g clip-path="url(#clip0_190_2276)">
<path d="M7.75563 11.9047C7.28223 14.3833 6.70533 16.7593 4.99443 18.0004C4.46703 14.2546 5.76933 11.4421 6.37503 8.45589C5.34273 6.71889 6.49923 3.22509 8.67453 4.08639C11.352 5.14479 6.35613 10.5412 9.70953 11.2162C13.2114 11.9191 14.6406 5.14119 12.4689 2.93709C9.33243 -0.247115 3.33753 2.86239 4.07553 7.42089C4.25463 8.53509 5.40573 8.87259 4.53543 10.4107C2.52753 9.96609 1.92813 8.38209 2.00553 6.27069C2.12973 2.81469 5.10963 0.396385 8.09943 0.0606851C11.8803 -0.363215 15.429 1.44938 15.9195 5.00529C16.4712 9.02019 14.2131 13.369 10.1694 13.0558C9.07323 12.9703 8.61423 12.4267 7.75563 11.9047Z" fill="#85868C"/>
</g>
<defs>
<clipPath id="clip0_190_2276">
<rect width="18" height="18" fill="white"/>
</clipPath>
</defs>
</svg>
